<?xml version="1.0" encoding="UTF-8" standalone="no"?>
<svg
   xmlns:serif="http://www.serif.com/"
   xmlns:dc="http://purl.org/dc/elements/1.1/"
   xmlns:cc="http://creativecommons.org/ns#"
   xmlns:rdf="http://www.w3.org/1999/02/22-rdf-syntax-ns#"
   xmlns:svg="http://www.w3.org/2000/svg"
   xmlns="http://www.w3.org/2000/svg"
   xmlns:sodipodi="http://sodipodi.sourceforge.net/DTD/sodipodi-0.dtd"
   xmlns:inkscape="http://www.inkscape.org/namespaces/inkscape"
   width="100%"
   height="100%"
   viewBox="0 0 792 612"
   version="1.1"
   xml:space="preserve"
   style="fill-rule:evenodd;clip-rule:evenodd;stroke-linejoin:round;stroke-miterlimit:1.41421;"
   id="svg106"
   sodipodi:docname="ritlug-poster-template-horizontal.svg"
   inkscape:version="0.92.2 (5c3e80d, 2017-08-06)"><metadata
     id="metadata112"><rdf:RDF><cc:Work
         rdf:about=""><dc:format>image/svg+xml</dc:format><dc:type
           rdf:resource="http://purl.org/dc/dcmitype/StillImage" /></cc:Work></rdf:RDF></metadata><defs
     id="defs110" /><sodipodi:namedview
     pagecolor="#ffffff"
     bordercolor="#666666"
     borderopacity="1"
     objecttolerance="10"
     gridtolerance="10"
     guidetolerance="10"
     inkscape:pageopacity="0"
     inkscape:pageshadow="2"
     inkscape:window-width="1362"
     inkscape:window-height="725"
     id="namedview108"
     showgrid="false"
     inkscape:zoom="0.90028971"
     inkscape:cx="397.64879"
     inkscape:cy="306"
     inkscape:window-x="0"
     inkscape:window-y="20"
     inkscape:window-maximized="0"
     inkscape:current-layer="g28" /><rect
     id="Artboard1"
     x="0"
     y="0"
     width="792"
     height="612"
     style="fill:none;" /><clipPath
     id="_clip1"><rect
       id="Artboard11"
       serif:id="Artboard1"
       x="0"
       y="0"
       width="792"
       height="612" /></clipPath><g
     clip-path="url(#_clip1)"
     id="g104"><g
       id="g42"><clipPath
         id="_clip2"><rect
           id="vertical_color_with_wordmark"
           x="36"
           y="36"
           width="216"
           height="240.06" /></clipPath><g
         clip-path="url(#_clip2)"
         id="g14"><g
           id="Layer-1"
           serif:id="Layer 1"><g
             id="g2378"><path
               id="path1953"
               d="M50.137,107.804c6.395,-13.805 21.111,-24.41 33.965,-32.298c6.166,-3.784 13.589,-6.974 23.814,-7.018c-1.482,14.271 -6.888,26.532 -19.535,37.139c-2.154,1.807 -4.193,4.473 -4.196,7.284c-0.004,2.81 2.029,5.479 4.178,7.291c12.621,10.637 18.027,22.904 19.53,37.153c-10.216,-0.05 -17.63,-3.238 -23.791,-7.019c-12.854,-7.888 -27.57,-18.493 -33.965,-32.298c-0.794,-1.714 -1.189,-3.426 -1.202,-5.117c0.013,-1.69 0.408,-3.403 1.202,-5.117"
               style="fill:#f36e21;fill-rule:nonzero;" /><path
               id="path1955"
               d="M68.104,204.67l0,44.26l151.792,0l0,-44.26l-151.792,0Zm130.297,9.942c3.49,0 6.981,1.326 9.39,3.422l-2.339,3.036c-1.886,-1.745 -4.503,-2.794 -7.051,-2.794c-4.992,0 -8.904,3.806 -8.904,8.658c0,4.888 3.946,8.693 8.938,8.693c1.815,0 3.875,-0.628 5.621,-1.675l0,-6.808l3.596,0l0,9.006c-2.479,1.885 -6.145,3.177 -9.497,3.177c-7.226,0 -12.846,-5.411 -12.846,-12.393c0,-6.981 5.69,-12.322 13.092,-12.322Zm-116.141,0.07l11.414,0c6.564,0 10.334,3.142 10.334,8.692c0,3.631 -1.466,6.284 -4.119,7.785l4.956,7.994l-8.237,0l-3.248,-6.598l-3.84,0l0,6.598l-7.26,0l0,-24.471Zm25.308,0l7.261,0l0,24.471l-7.261,0l0,-24.471Zm9.531,0l21.504,0l0,5.794l-7.122,0l0,18.677l-7.296,0l0,-18.677l-7.086,0l0,-5.794Zm24.923,0.034l4.12,0l0,20.701l10.578,0l0,3.736l-14.698,0l0,-24.437Zm18.153,0l4.12,0l0,14.314c0,4.119 2.548,6.597 6.563,6.597c3.98,0 6.457,-2.443 6.457,-6.597l0,-14.314l4.121,0l0,14.314c0,6.388 -4.016,10.297 -10.613,10.297c-6.599,0 -10.648,-3.909 -10.648,-10.297l0,-14.314Zm-70.655,5.552l0,6.702l4.154,0c2.165,0 3.421,-1.187 3.421,-3.386c0,-2.129 -1.256,-3.316 -3.421,-3.316l-4.154,0Z"
               style="fill:#f36e21;fill-rule:nonzero;" /><path
               id="path1981"
               d="M36,242.696l25.87,0l0,-44.26l-25.87,0l12.935,22.13l-12.935,22.13Z"
               style="fill:#f36e21;fill-rule:nonzero;" /><path
               id="path1985"
               d="M252,198.658l-25.87,0l0,44.26l25.87,0l-12.935,-22.13l12.935,-22.13Z"
               style="fill:#f36e21;fill-rule:nonzero;" /><path
               id="path1989"
               d="M88.587,111.174c19.269,-17.144 26.379,-38.446 21.168,-64.18c11.784,-7.118 25.891,-10.61 38.347,-10.994c42.564,0 78.519,34.471 78.519,77.036c0,32.988 -21.51,61.114 -51.002,72.102c-7.648,-20.387 -19.559,-52.132 -20.176,-53.745c8.805,-2.547 15.246,-10.663 15.246,-20.289c0,-12.132 -10.228,-21.877 -22.533,-21.078c-10.566,0.685 -19.106,9.32 -19.682,19.893c-0.554,10.129 6.035,18.807 15.186,21.467c-0.626,1.625 -12.611,33.582 -20.252,53.96c-4.695,-1.657 -9.304,-3.734 -13.699,-6.233c5.33,-26.086 -1.973,-47.386 -21.24,-64.542c-0.027,-0.025 -0.732,-0.701 -0.732,-1.65c0,-0.925 0.77,-1.684 0.85,-1.747"
               style="fill:#020202;fill-rule:nonzero;" /></g></g></g><g
         transform="matrix(0.123447,0,0,0.124176,16.1718,121.799)"
         id="g40"><g
           transform="matrix(1.0059,0,0,1,-1.5783,0)"
           id="g20"><text
             x="267.43201"
             y="1334.64"
             style="font-weight:300;font-size:155.26800537px;font-family:Overpass-Light, Overpass"
             id="text18">RIT <tspan
   x="495.40302"
   y="1334.64"
   id="tspan16" />Linux Users Group</text>
</g><g
           transform="matrix(1.0059,0,0,1,-1.9994,161.06171)"
           id="g28"><text
             x="548.16541"
             y="1544.8362"
             style="font-weight:300;font-size:155.26800537px;font-family:Overpass-Light, Overpass"
             id="text26">4:00-6:00PM</text>
<text
             x="342.67471"
             y="1358.6893"
             style="font-weight:300;font-size:155.26800537px;font-family:Overpass-Light, Overpass;clip-rule:evenodd;fill-rule:evenodd;stroke-width:1;stroke-linejoin:round;stroke-miterlimit:1.41420996"
             id="text26-3">Friday, MONTH DAY</text>
</g><g
           transform="matrix(1.0059,0,0,1,-0.912445,161.06171)"
           id="g32"><text
             x="154.60699"
             y="1722.8101"
             style="font-weight:300;font-size:155.26800537px;font-family:Overpass-Light, Overpass"
             id="text30">GOL-2650 (Med. DB Lab)</text>
</g><g
           transform="matrix(1.0059,0,0,1,-4.05146,96.637032)"
           id="g38"><text
             x="686.492"
             y="2033.35"
             style="font-weight:300;font-size:155.26800537px;font-family:Overpass-Light, Overpass"
             id="text36">r<tspan
   x="744.87701"
   y="2033.35"
   id="tspan34">i</tspan>tlug.com</text>
</g></g></g><text
       x="397.116px"
       y="70.656px"
       style="font-family:'Overpass-Bold', 'Overpass';font-weight:700;font-size:36px;"
       id="text50">Y<tspan
   x="418.86px "
   y="70.656px "
   id="tspan44">o</tspan>ur <tspan
   x="482.94px "
   y="70.656px "
   id="tspan46">T</tspan>itle Her<tspan
   x="626.868px "
   y="70.656px "
   id="tspan48">e</tspan></text>
<g
       transform="matrix(0.240452,0,0,0.240452,156.112,-14.125)"
       id="g98"><text
         x="544.768px"
         y="486.789px"
         style="font-family:'Overpass-ExtraLightItalic', 'Overpass';font-weight:275;font-style:italic;font-size:66.667px;"
         id="text56">Lor<tspan
   x="637.234px "
   y="486.789px "
   id="tspan52">e</tspan>m ip<tspan
   x="791.501px 820.101px "
   y="486.789px 486.789px "
   id="tspan54">su</tspan>m blahblahblah</text>
<text
         x="544.768px"
         y="563.456px"
         style="font-family:'Overpass-ExtraLightItalic', 'Overpass';font-weight:275;font-style:italic;font-size:66.667px;"
         id="text60">Some<tspan
   x="705.168px 727.034px "
   y="563.456px 563.456px "
   id="tspan58">th</tspan>ing Linux</text>
<text
         x="544.768px"
         y="640.122px"
         style="font-family:'Overpass-ExtraLightItalic', 'Overpass';font-weight:275;font-style:italic;font-size:66.667px;"
         id="text66">Put your cont<tspan
   x="924.634px "
   y="640.122px "
   id="tspan62">e</tspan>nt her<tspan
   x="1124.17px "
   y="640.122px "
   id="tspan64">e</tspan></text>
<text
         x="544.768px"
         y="716.789px"
         style="font-family:'Overpass-ExtraLightItalic', 'Overpass';font-weight:275;font-style:italic;font-size:66.667px;"
         id="text82">And t<tspan
   x="695.834px "
   y="716.789px "
   id="tspan68">h</tspan>en align t<tspan
   x="989.768px "
   y="716.789px "
   id="tspan70">h</tspan>e t<tspan
   x="1096.77px 1128.43px 1159.5px 1181.37px 1217.17px 1249.77px "
   y="716.789px 716.789px 716.789px 716.789px 716.789px 716.789px "
   id="tspan72">extbox</tspan> t<tspan
   x="1319.1px "
   y="716.789px "
   id="tspan74">o</tspan> t<tspan
   x="1390.97px "
   y="716.789px "
   id="tspan76">h</tspan>e image's lef<tspan
   x="1777.03px "
   y="716.789px "
   id="tspan78">t</tspan> if you t<tspan
   x="2006.57px "
   y="716.789px "
   id="tspan80">h</tspan>ink it'll look</text>
<text
         x="544.768px"
         y="793.456px"
         style="font-family:'Overpass-ExtraLightItalic', 'Overpass';font-weight:275;font-style:italic;font-size:66.667px;"
         id="text96">nicer<tspan
   x="680.901px "
   y="793.456px "
   id="tspan84">.</tspan> Or cent<tspan
   x="918.301px 951.968px 975.101px "
   y="793.456px 793.456px 793.456px "
   id="tspan86">er-</tspan>align t<tspan
   x="1175.77px "
   y="793.456px "
   id="tspan88">o</tspan> t<tspan
   x="1247.63px "
   y="793.456px "
   id="tspan90">h</tspan>e image if you w<tspan
   x="1734.43px "
   y="793.456px "
   id="tspan92">a</tspan>nt<tspan
   x="1824.37px "
   y="793.456px "
   id="tspan94">.</tspan></text>
</g><rect
       x="288"
       y="225"
       width="468"
       height="351"
       style="fill:#ebebeb;"
       id="rect100" /><rect
       x="36"
       y="414"
       width="216"
       height="162"
       style="fill:#ebebeb;"
       id="rect102" /></g></svg>