<?xml version="1.0" encoding="UTF-8" standalone="no"?><!DOCTYPE svg PUBLIC "-//W3C//DTD SVG 1.1//EN" "http://www.w3.org/Graphics/SVG/1.1/DTD/svg11.dtd"><svg width="100%" height="100%" viewBox="0 0 792 612" version="1.1" xmlns="http://www.w3.org/2000/svg" xmlns:xlink="http://www.w3.org/1999/xlink" xml:space="preserve" xmlns:serif="http://www.serif.com/" style="fill-rule:evenodd;clip-rule:evenodd;stroke-linejoin:round;stroke-miterlimit:1.41421;"><rect id="Artboard1" x="0" y="0" width="792" height="612" style="fill:none;"/><clipPath id="_clip1"><rect id="Artboard11" serif:id="Artboard1" x="0" y="0" width="792" height="612"/></clipPath><g clip-path="url(#_clip1)"><g><clipPath id="_clip2"><rect id="vertical_color_with_wordmark" x="36" y="36" width="216" height="240.06"/></clipPath><g clip-path="url(#_clip2)"><g id="Layer-1" serif:id="Layer 1"><g id="g2378"><path id="path1953" d="M50.137,107.804c6.395,-13.805 21.111,-24.41 33.965,-32.298c6.166,-3.784 13.589,-6.974 23.814,-7.018c-1.482,14.271 -6.888,26.532 -19.535,37.139c-2.154,1.807 -4.193,4.473 -4.196,7.284c-0.004,2.81 2.029,5.479 4.178,7.291c12.621,10.637 18.027,22.904 19.53,37.153c-10.216,-0.05 -17.63,-3.238 -23.791,-7.019c-12.854,-7.888 -27.57,-18.493 -33.965,-32.298c-0.794,-1.714 -1.189,-3.426 -1.202,-5.117c0.013,-1.69 0.408,-3.403 1.202,-5.117" style="fill:#f36e21;fill-rule:nonzero;"/><path id="path1955" d="M68.104,204.67l0,44.26l151.792,0l0,-44.26l-151.792,0Zm130.297,9.942c3.49,0 6.981,1.326 9.39,3.422l-2.339,3.036c-1.886,-1.745 -4.503,-2.794 -7.051,-2.794c-4.992,0 -8.904,3.806 -8.904,8.658c0,4.888 3.946,8.693 8.938,8.693c1.815,0 3.875,-0.628 5.621,-1.675l0,-6.808l3.596,0l0,9.006c-2.479,1.885 -6.145,3.177 -9.497,3.177c-7.226,0 -12.846,-5.411 -12.846,-12.393c0,-6.981 5.69,-12.322 13.092,-12.322Zm-116.141,0.07l11.414,0c6.564,0 10.334,3.142 10.334,8.692c0,3.631 -1.466,6.284 -4.119,7.785l4.956,7.994l-8.237,0l-3.248,-6.598l-3.84,0l0,6.598l-7.26,0l0,-24.471Zm25.308,0l7.261,0l0,24.471l-7.261,0l0,-24.471Zm9.531,0l21.504,0l0,5.794l-7.122,0l0,18.677l-7.296,0l0,-18.677l-7.086,0l0,-5.794Zm24.923,0.034l4.12,0l0,20.701l10.578,0l0,3.736l-14.698,0l0,-24.437Zm18.153,0l4.12,0l0,14.314c0,4.119 2.548,6.597 6.563,6.597c3.98,0 6.457,-2.443 6.457,-6.597l0,-14.314l4.121,0l0,14.314c0,6.388 -4.016,10.297 -10.613,10.297c-6.599,0 -10.648,-3.909 -10.648,-10.297l0,-14.314Zm-70.655,5.552l0,6.702l4.154,0c2.165,0 3.421,-1.187 3.421,-3.386c0,-2.129 -1.256,-3.316 -3.421,-3.316l-4.154,0Z" style="fill:#f36e21;fill-rule:nonzero;"/><path id="path1981" d="M36,242.696l25.87,0l0,-44.26l-25.87,0l12.935,22.13l-12.935,22.13Z" style="fill:#f36e21;fill-rule:nonzero;"/><path id="path1985" d="M252,198.658l-25.87,0l0,44.26l25.87,0l-12.935,-22.13l12.935,-22.13Z" style="fill:#f36e21;fill-rule:nonzero;"/><path id="path1989" d="M88.587,111.174c19.269,-17.144 26.379,-38.446 21.168,-64.18c11.784,-7.118 25.891,-10.61 38.347,-10.994c42.564,0 78.519,34.471 78.519,77.036c0,32.988 -21.51,61.114 -51.002,72.102c-7.648,-20.387 -19.559,-52.132 -20.176,-53.745c8.805,-2.547 15.246,-10.663 15.246,-20.289c0,-12.132 -10.228,-21.877 -22.533,-21.078c-10.566,0.685 -19.106,9.32 -19.682,19.893c-0.554,10.129 6.035,18.807 15.186,21.467c-0.626,1.625 -12.611,33.582 -20.252,53.96c-4.695,-1.657 -9.304,-3.734 -13.699,-6.233c5.33,-26.086 -1.973,-47.386 -21.24,-64.542c-0.027,-0.025 -0.732,-0.701 -0.732,-1.65c0,-0.925 0.77,-1.684 0.85,-1.747" style="fill:#020202;fill-rule:nonzero;"/></g></g></g><g transform="matrix(0.123447,0,0,0.124176,16.1718,121.799)"><g transform="matrix(1.0059,0,0,1,-1.5783,0)"><text x="267.432px" y="1334.64px" style="font-family:'Overpass-Light', 'Overpass';font-weight:300;font-size:155.268px;">RIT<tspan x="495.403px " y="1334.64px "> </tspan>Linux Users Group</text></g><g transform="matrix(1.0059,0,0,1,-1.9994,0)"><text x="338.784px" y="1528.73px" style="font-family:'Overpass-Light', 'Overpass';font-weight:300;font-size:155.268px;">F<tspan x="415.55px 473.935px " y="1528.73px 1528.73px ">ri</tspan>da<tspan x="677.821px " y="1528.73px ">y</tspan> 4:00-6:00PM</text></g><g transform="matrix(1.0059,0,0,1,-0.912445,0)"><text x="154.607px" y="1722.81px" style="font-family:'Overpass-Light', 'Overpass';font-weight:300;font-size:155.268px;">GOL-2650 (Med. DB Lab)</text></g><g transform="matrix(1.0059,0,0,1,-4.05146,0)"><text x="686.492px" y="2033.35px" style="font-family:'Overpass-Light', 'Overpass';font-weight:300;font-size:155.268px;">r<tspan x="744.877px " y="2033.35px ">i</tspan>tlug.com</text></g></g></g><text x="397.116px" y="70.656px" style="font-family:'Overpass-Bold', 'Overpass';font-weight:700;font-size:36px;">Y<tspan x="418.86px " y="70.656px ">o</tspan>ur <tspan x="482.94px " y="70.656px ">T</tspan>itle Her<tspan x="626.868px " y="70.656px ">e</tspan></text><g transform="matrix(0.240452,0,0,0.240452,156.112,-14.125)"><text x="544.768px" y="486.789px" style="font-family:'Overpass-ExtraLightItalic', 'Overpass';font-weight:275;font-style:italic;font-size:66.667px;">Lor<tspan x="637.234px " y="486.789px ">e</tspan>m ip<tspan x="791.501px 820.101px " y="486.789px 486.789px ">su</tspan>m blahblahblah</text><text x="544.768px" y="563.456px" style="font-family:'Overpass-ExtraLightItalic', 'Overpass';font-weight:275;font-style:italic;font-size:66.667px;">Some<tspan x="705.168px 727.034px " y="563.456px 563.456px ">th</tspan>ing Linux</text><text x="544.768px" y="640.122px" style="font-family:'Overpass-ExtraLightItalic', 'Overpass';font-weight:275;font-style:italic;font-size:66.667px;">Put your cont<tspan x="924.634px " y="640.122px ">e</tspan>nt her<tspan x="1124.17px " y="640.122px ">e</tspan></text><text x="544.768px" y="716.789px" style="font-family:'Overpass-ExtraLightItalic', 'Overpass';font-weight:275;font-style:italic;font-size:66.667px;">And t<tspan x="695.834px " y="716.789px ">h</tspan>en align t<tspan x="989.768px " y="716.789px ">h</tspan>e t<tspan x="1096.77px 1128.43px 1159.5px 1181.37px 1217.17px 1249.77px " y="716.789px 716.789px 716.789px 716.789px 716.789px 716.789px ">extbox</tspan> t<tspan x="1319.1px " y="716.789px ">o</tspan> t<tspan x="1390.97px " y="716.789px ">h</tspan>e image&apos;s lef<tspan x="1777.03px " y="716.789px ">t</tspan> if you t<tspan x="2006.57px " y="716.789px ">h</tspan>ink it&apos;ll look</text><text x="544.768px" y="793.456px" style="font-family:'Overpass-ExtraLightItalic', 'Overpass';font-weight:275;font-style:italic;font-size:66.667px;">nicer<tspan x="680.901px " y="793.456px ">.</tspan> Or cent<tspan x="918.301px 951.968px 975.101px " y="793.456px 793.456px 793.456px ">er-</tspan>align t<tspan x="1175.77px " y="793.456px ">o</tspan> t<tspan x="1247.63px " y="793.456px ">h</tspan>e image if you w<tspan x="1734.43px " y="793.456px ">a</tspan>nt<tspan x="1824.37px " y="793.456px ">.</tspan></text></g><rect x="288" y="225" width="468" height="351" style="fill:#ebebeb;"/><rect x="36" y="414" width="216" height="162" style="fill:#ebebeb;"/></g></svg>