<?xml version="1.0" encoding="UTF-8" standalone="no"?><!DOCTYPE svg PUBLIC "-//W3C//DTD SVG 1.1//EN" "http://www.w3.org/Graphics/SVG/1.1/DTD/svg11.dtd"><svg width="100%" height="100%" viewBox="0 0 612 792" version="1.1" xmlns="http://www.w3.org/2000/svg" xmlns:xlink="http://www.w3.org/1999/xlink" xml:space="preserve" xmlns:serif="http://www.serif.com/" style="fill-rule:evenodd;clip-rule:evenodd;stroke-linejoin:round;stroke-miterlimit:1.41421;"><clipPath id="_clip1"><rect id="horizontal_color_with_wordmark" x="36" y="648" width="312.483" height="108"/></clipPath><g clip-path="url(#_clip1)"><g id="g2604"><g id="g1909"><path id="path1915" d="M177.796,671.939l0,49.769l170.687,0l0,-49.769l-170.687,0Zm146.517,11.179c3.924,0 7.85,1.492 10.559,3.848l-2.63,3.415c-2.121,-1.962 -5.064,-3.141 -7.929,-3.141c-5.613,0 -10.012,4.279 -10.012,9.736c0,5.495 4.437,9.774 10.05,9.774c2.042,0 4.357,-0.706 6.321,-1.884l0,-7.655l4.043,0l0,10.128c-2.788,2.119 -6.909,3.571 -10.678,3.571c-8.126,0 -14.446,-6.084 -14.446,-13.934c0,-7.851 6.399,-13.858 14.722,-13.858Zm-130.598,0.079l12.835,0c7.381,0 11.62,3.534 11.62,9.775c0,4.082 -1.649,7.066 -4.632,8.754l5.573,8.989l-9.263,0l-3.651,-7.42l-4.318,0l0,7.42l-8.164,0l0,-27.518Zm28.46,0l8.163,0l0,27.518l-8.163,0l0,-27.518Zm10.715,0l24.181,0l0,6.517l-8.008,0l0,21l-8.205,0l0,-21l-7.968,0l0,-6.517Zm28.026,0.04l4.632,0l0,23.277l11.895,0l0,4.201l-16.527,0l0,-27.478Zm20.413,0l4.633,0l0,16.094c0,4.632 2.865,7.418 7.379,7.418c4.476,0 7.262,-2.747 7.262,-7.418l0,-16.094l4.633,0l0,16.094c0,7.183 -4.515,11.58 -11.934,11.58c-7.42,0 -11.973,-4.397 -11.973,-11.58l0,-16.094Zm-79.45,6.241l0,7.537l4.671,0c2.435,0 3.847,-1.335 3.847,-3.808c0,-2.394 -1.412,-3.729 -3.847,-3.729l-4.671,0Z" style="fill:#f36e21;fill-rule:nonzero;"/></g><g id="text1941"><text x="191.166px" y="750.091px" style="font-family:'Overpass-Regular', 'Overpass';font-size:28.548px;">r<tspan x="202.129px " y="750.091px ">i</tspan>tlug.<tspan x="265.591px " y="750.091px ">c</tspan>om</text></g><path id="path1993" d="M36.866,699.743c4.608,-9.949 15.213,-17.59 24.475,-23.274c4.444,-2.728 9.792,-5.026 17.16,-5.058c-1.066,10.285 -4.962,19.119 -14.076,26.763c-1.552,1.302 -3.022,3.223 -3.024,5.249c-0.002,2.026 1.462,3.948 3.011,5.254c9.095,7.665 12.99,16.504 14.073,26.772c-7.362,-0.036 -12.704,-2.333 -17.144,-5.057c-9.262,-5.685 -19.867,-13.326 -24.475,-23.274c-0.573,-1.236 -0.857,-2.47 -0.866,-3.688c0.01,-1.218 0.293,-2.452 0.866,-3.687" style="fill:#f36e21;fill-rule:nonzero;"/><path id="path1997" d="M64.573,702.171c13.886,-12.354 19.009,-27.704 15.254,-46.249c8.492,-5.129 18.658,-7.645 27.633,-7.922c30.673,0 56.582,24.84 56.582,55.513c0,23.772 -15.501,44.039 -36.753,51.958c-5.511,-14.692 -14.094,-37.568 -14.539,-38.73c6.346,-1.835 10.986,-7.684 10.986,-14.62c0,-8.743 -7.37,-15.765 -16.236,-15.189c-7.615,0.493 -13.769,6.717 -14.184,14.334c-0.399,7.301 4.35,13.553 10.943,15.47c-0.45,1.171 -9.088,24.2 -14.594,38.884c-3.383,-1.193 -6.704,-2.69 -9.87,-4.491c3.839,-18.799 -1.423,-34.147 -15.307,-46.51c-0.02,-0.018 -0.527,-0.506 -0.527,-1.189c0,-0.667 0.555,-1.213 0.612,-1.259" style="fill:#020202;fill-rule:nonzero;"/></g></g><g transform="matrix(0.123447,0,0,0.124176,340.876,517.78)"><g transform="matrix(1.0059,0,0,1,-1.5783,0)"><text x="267.432px" y="1334.64px" style="font-family:'Overpass-Light', 'Overpass';font-weight:300;font-size:155.268px;">RIT<tspan x="495.403px " y="1334.64px "> </tspan>Linux Users Group</text></g><g transform="matrix(1.0059,0,0,1,-1.9994,0)"><text x="338.784px" y="1528.73px" style="font-family:'Overpass-Light', 'Overpass';font-weight:300;font-size:155.268px;">F<tspan x="415.55px 473.935px " y="1528.73px 1528.73px ">ri</tspan>da<tspan x="677.821px " y="1528.73px ">y</tspan> 4:00-6:00PM</text></g><g transform="matrix(1.0059,0,0,1,-0.912445,0)"><text x="154.607px" y="1722.81px" style="font-family:'Overpass-Light', 'Overpass';font-weight:300;font-size:155.268px;">GOL-2650 (Med. DB Lab)</text></g></g><text x="139.488px" y="70.656px" style="font-family:'Overpass-Bold', 'Overpass';font-weight:700;font-size:48px;">Y<tspan x="168.48px " y="70.656px ">o</tspan>ur <tspan x="253.92px " y="70.656px ">T</tspan>itle Her<tspan x="445.824px " y="70.656px ">e</tspan></text><g transform="matrix(0.240452,0,0,0.240452,-67.5186,-7.93538)"><text x="544.768px" y="486.789px" style="font-family:'Overpass-ExtraLightItalic', 'Overpass';font-weight:275;font-style:italic;font-size:66.667px;">Lor<tspan x="637.234px " y="486.789px ">e</tspan>m ip<tspan x="791.501px 820.101px " y="486.789px 486.789px ">su</tspan>m blahblahblah</text><text x="544.768px" y="563.456px" style="font-family:'Overpass-ExtraLightItalic', 'Overpass';font-weight:275;font-style:italic;font-size:66.667px;">Some<tspan x="705.168px 727.034px " y="563.456px 563.456px ">th</tspan>ing Linux</text><text x="544.768px" y="640.122px" style="font-family:'Overpass-ExtraLightItalic', 'Overpass';font-weight:275;font-style:italic;font-size:66.667px;">Put your cont<tspan x="924.634px " y="640.122px ">e</tspan>nt her<tspan x="1124.17px " y="640.122px ">e</tspan></text><text x="544.768px" y="716.789px" style="font-family:'Overpass-ExtraLightItalic', 'Overpass';font-weight:275;font-style:italic;font-size:66.667px;">And t<tspan x="695.834px " y="716.789px ">h</tspan>en align t<tspan x="989.768px " y="716.789px ">h</tspan>e t<tspan x="1096.77px 1128.43px 1159.5px 1181.37px 1217.17px 1249.77px " y="716.789px 716.789px 716.789px 716.789px 716.789px 716.789px ">extbox</tspan> t<tspan x="1319.1px " y="716.789px ">o</tspan> t<tspan x="1390.97px " y="716.789px ">h</tspan>e cent<tspan x="1597.97px " y="716.789px ">e</tspan>r if you t<tspan x="1862.43px " y="716.789px ">h</tspan>ink it&apos;ll look nicer</text></g><rect x="36" y="207" width="540" height="405" style="fill:#ebebeb;"/></svg>